<svg width="144" height="51" viewBox="0 0 144 51" fill="none" xmlns="http://www.w3.org/2000/svg">
<g clip-path="url(#clip0_1035_2263)">
<path d="M53.011 39.1434C53.011 32.0893 57.5938 27.5065 67.4696 27.5065H76.2849V26.7995C76.2849 22.2167 73.4632 19.395 68.8772 19.395C63.9409 19.395 61.8263 22.2167 61.4728 24.3313H54.4218C54.7721 18.3377 60.0619 13.4014 68.8772 13.4014C78.046 13.4014 83.3358 18.688 83.3358 26.7995V49.3631H77.3422L76.6352 45.4842H76.2849C76.2849 45.4842 73.1002 50.067 65.7053 50.067C57.9473 50.0733 53.011 45.4905 53.011 39.1434ZM76.2849 34.5574V33.1466H67.8199C62.5301 33.1466 60.0619 35.6147 60.0619 38.7899C60.0619 41.9651 62.1798 44.0797 66.4091 44.0797C72.7562 44.0797 76.2849 40.5542 76.2849 34.5574Z" fill="white"/>
<path d="M89.3352 14.1055H95.332L96.0358 17.2902H96.3893C97.4467 15.8794 98.8575 14.1055 103.077 14.1055H109.437V20.4526H103.794C98.8575 20.4526 96.3893 22.9208 96.3893 27.7774V49.3634H89.3352V14.1055Z" fill="white"/>
<path d="M112.257 0H119.308V30.3248L134.12 14.1051H142.582L126.716 31.3854L143.276 49.3694H134.824L119.308 32.4427V49.3631H112.257V0Z" fill="white"/>
<path d="M31.9511 20.1211H22.6008L39.4193 50.9459H48.7696L31.9511 20.1211Z" fill="url(#paint0_linear_1035_2263)"/>
<path d="M10.0977 43.0732L26.2792 13.742L21.6868 5.51904L1.61678 40.7643C1.20562 41.4825 0.931336 42.2708 0.807861 43.0891L10.0977 43.0732Z" fill="url(#paint1_linear_1035_2263)"/>
<path d="M0.803965 43.0889C0.640643 44.0612 0.691139 45.0574 0.951938 46.0083C1.21274 46.9591 1.67758 47.8417 2.31411 48.5946C2.95065 49.3475 3.7436 49.9527 4.63778 50.3681C5.53197 50.7834 6.50592 50.999 7.49186 50.9997L30.9377 50.9551L35.0778 43.0984L0.803965 43.0889Z" fill="url(#paint2_linear_1035_2263)"/>
</g>
<defs>
<linearGradient id="paint0_linear_1035_2263" x1="43.3652" y1="49.8886" x2="28.5881" y2="22.2676" gradientUnits="userSpaceOnUse">
<stop stop-color="#00556F"/>
<stop offset="1" stop-color="#9CC8C5"/>
</linearGradient>
<linearGradient id="paint1_linear_1035_2263" x1="23.9671" y1="11.0159" x2="-3.24307" y2="55.7675" gradientUnits="userSpaceOnUse">
<stop offset="0.18" stop-color="#00556F"/>
<stop offset="0.91" stop-color="#9CC8C5"/>
</linearGradient>
<linearGradient id="paint2_linear_1035_2263" x1="-13.1323" y1="47.0443" x2="39.7944" y2="47.0443" gradientUnits="userSpaceOnUse">
<stop stop-color="#00556F"/>
<stop offset="0.11" stop-color="#1E6B80"/>
<stop offset="0.32" stop-color="#54939D"/>
<stop offset="0.5" stop-color="#7BB0B3"/>
<stop offset="0.64" stop-color="#93C2C0"/>
<stop offset="0.73" stop-color="#9CC8C5"/>
</linearGradient>
<clipPath id="clip0_1035_2263">
<rect width="142.58" height="51" fill="white" transform="translate(0.710205)"/>
</clipPath>
</defs>
</svg>
